<mxfile host="app.diagrams.net" agent="Mozilla/5.0 (Windows NT 10.0; Win64; x64) AppleWebKit/537.36 (KHTML, like Gecko) Chrome/130.0.0.0 Safari/537.36" version="24.8.4">
  <diagram name="Сторінка-1" id="K36h-wPgkVXGl2crBWcy">
    <mxGraphModel dx="2387" dy="1367" grid="1" gridSize="10" guides="1" tooltips="1" connect="1" arrows="1" fold="1" page="1" pageScale="1" pageWidth="827" pageHeight="1169" math="0" shadow="0">
      <root>
        <mxCell id="0" />
        <mxCell id="1" parent="0" />
        <mxCell id="INymWTwLo0coM6jpBJcd-16" style="edgeStyle=orthogonalEdgeStyle;rounded=0;orthogonalLoop=1;jettySize=auto;html=1;entryX=0.5;entryY=0;entryDx=0;entryDy=0;" edge="1" parent="1" source="INymWTwLo0coM6jpBJcd-1" target="INymWTwLo0coM6jpBJcd-3">
          <mxGeometry relative="1" as="geometry" />
        </mxCell>
        <mxCell id="INymWTwLo0coM6jpBJcd-1" value="start" style="ellipse;whiteSpace=wrap;html=1;" vertex="1" parent="1">
          <mxGeometry x="340" y="30" width="120" height="80" as="geometry" />
        </mxCell>
        <mxCell id="INymWTwLo0coM6jpBJcd-17" style="edgeStyle=orthogonalEdgeStyle;rounded=0;orthogonalLoop=1;jettySize=auto;html=1;entryX=0.5;entryY=0;entryDx=0;entryDy=0;" edge="1" parent="1" source="INymWTwLo0coM6jpBJcd-3" target="INymWTwLo0coM6jpBJcd-4">
          <mxGeometry relative="1" as="geometry" />
        </mxCell>
        <mxCell id="INymWTwLo0coM6jpBJcd-3" value="cin" style="shape=parallelogram;perimeter=parallelogramPerimeter;whiteSpace=wrap;html=1;fixedSize=1;" vertex="1" parent="1">
          <mxGeometry x="340" y="150" width="120" height="60" as="geometry" />
        </mxCell>
        <mxCell id="INymWTwLo0coM6jpBJcd-18" style="edgeStyle=orthogonalEdgeStyle;rounded=0;orthogonalLoop=1;jettySize=auto;html=1;entryX=0.5;entryY=0;entryDx=0;entryDy=0;" edge="1" parent="1" source="INymWTwLo0coM6jpBJcd-4" target="INymWTwLo0coM6jpBJcd-5">
          <mxGeometry relative="1" as="geometry" />
        </mxCell>
        <mxCell id="INymWTwLo0coM6jpBJcd-4" value="for" style="rhombus;whiteSpace=wrap;html=1;" vertex="1" parent="1">
          <mxGeometry x="360" y="270" width="80" height="80" as="geometry" />
        </mxCell>
        <mxCell id="INymWTwLo0coM6jpBJcd-5" value="cin" style="shape=parallelogram;perimeter=parallelogramPerimeter;whiteSpace=wrap;html=1;fixedSize=1;" vertex="1" parent="1">
          <mxGeometry x="340" y="390" width="120" height="60" as="geometry" />
        </mxCell>
        <mxCell id="INymWTwLo0coM6jpBJcd-6" value="for" style="rhombus;whiteSpace=wrap;html=1;" vertex="1" parent="1">
          <mxGeometry x="360" y="505" width="80" height="80" as="geometry" />
        </mxCell>
        <mxCell id="INymWTwLo0coM6jpBJcd-21" style="edgeStyle=orthogonalEdgeStyle;rounded=0;orthogonalLoop=1;jettySize=auto;html=1;entryX=0.5;entryY=0;entryDx=0;entryDy=0;" edge="1" parent="1" source="INymWTwLo0coM6jpBJcd-7" target="INymWTwLo0coM6jpBJcd-8">
          <mxGeometry relative="1" as="geometry" />
        </mxCell>
        <mxCell id="INymWTwLo0coM6jpBJcd-7" value="if" style="rhombus;whiteSpace=wrap;html=1;" vertex="1" parent="1">
          <mxGeometry x="360" y="610" width="80" height="80" as="geometry" />
        </mxCell>
        <mxCell id="INymWTwLo0coM6jpBJcd-22" style="edgeStyle=orthogonalEdgeStyle;rounded=0;orthogonalLoop=1;jettySize=auto;html=1;" edge="1" parent="1" source="INymWTwLo0coM6jpBJcd-8" target="INymWTwLo0coM6jpBJcd-15">
          <mxGeometry relative="1" as="geometry" />
        </mxCell>
        <mxCell id="INymWTwLo0coM6jpBJcd-8" value="s++" style="rounded=0;whiteSpace=wrap;html=1;" vertex="1" parent="1">
          <mxGeometry x="340" y="730" width="120" height="60" as="geometry" />
        </mxCell>
        <mxCell id="INymWTwLo0coM6jpBJcd-9" value="s++" style="rounded=0;whiteSpace=wrap;html=1;" vertex="1" parent="1">
          <mxGeometry x="340" y="940" width="120" height="60" as="geometry" />
        </mxCell>
        <mxCell id="INymWTwLo0coM6jpBJcd-25" style="edgeStyle=orthogonalEdgeStyle;rounded=0;orthogonalLoop=1;jettySize=auto;html=1;entryX=0;entryY=0.5;entryDx=0;entryDy=0;" edge="1" parent="1" source="INymWTwLo0coM6jpBJcd-10" target="INymWTwLo0coM6jpBJcd-12">
          <mxGeometry relative="1" as="geometry" />
        </mxCell>
        <mxCell id="INymWTwLo0coM6jpBJcd-27" style="edgeStyle=orthogonalEdgeStyle;rounded=0;orthogonalLoop=1;jettySize=auto;html=1;entryX=0.5;entryY=0;entryDx=0;entryDy=0;" edge="1" parent="1" source="INymWTwLo0coM6jpBJcd-10" target="INymWTwLo0coM6jpBJcd-11">
          <mxGeometry relative="1" as="geometry" />
        </mxCell>
        <mxCell id="INymWTwLo0coM6jpBJcd-10" value="if" style="rhombus;whiteSpace=wrap;html=1;" vertex="1" parent="1">
          <mxGeometry x="360" y="1030" width="80" height="80" as="geometry" />
        </mxCell>
        <mxCell id="INymWTwLo0coM6jpBJcd-28" style="edgeStyle=orthogonalEdgeStyle;rounded=0;orthogonalLoop=1;jettySize=auto;html=1;" edge="1" parent="1" source="INymWTwLo0coM6jpBJcd-11" target="INymWTwLo0coM6jpBJcd-14">
          <mxGeometry relative="1" as="geometry" />
        </mxCell>
        <mxCell id="INymWTwLo0coM6jpBJcd-11" value="cout" style="shape=parallelogram;perimeter=parallelogramPerimeter;whiteSpace=wrap;html=1;fixedSize=1;" vertex="1" parent="1">
          <mxGeometry x="340" y="1160" width="120" height="60" as="geometry" />
        </mxCell>
        <mxCell id="INymWTwLo0coM6jpBJcd-26" style="edgeStyle=orthogonalEdgeStyle;rounded=0;orthogonalLoop=1;jettySize=auto;html=1;entryX=0.5;entryY=0;entryDx=0;entryDy=0;" edge="1" parent="1" source="INymWTwLo0coM6jpBJcd-12" target="INymWTwLo0coM6jpBJcd-13">
          <mxGeometry relative="1" as="geometry" />
        </mxCell>
        <mxCell id="INymWTwLo0coM6jpBJcd-12" value="else" style="rhombus;whiteSpace=wrap;html=1;" vertex="1" parent="1">
          <mxGeometry x="550" y="1030" width="80" height="80" as="geometry" />
        </mxCell>
        <mxCell id="INymWTwLo0coM6jpBJcd-29" style="edgeStyle=orthogonalEdgeStyle;rounded=0;orthogonalLoop=1;jettySize=auto;html=1;entryX=1;entryY=0.5;entryDx=0;entryDy=0;" edge="1" parent="1" source="INymWTwLo0coM6jpBJcd-13" target="INymWTwLo0coM6jpBJcd-14">
          <mxGeometry relative="1" as="geometry">
            <mxPoint x="590" y="1340" as="targetPoint" />
            <Array as="points">
              <mxPoint x="590" y="1280" />
              <mxPoint x="591" y="1280" />
              <mxPoint x="591" y="1320" />
            </Array>
          </mxGeometry>
        </mxCell>
        <mxCell id="INymWTwLo0coM6jpBJcd-13" value="cout" style="shape=parallelogram;perimeter=parallelogramPerimeter;whiteSpace=wrap;html=1;fixedSize=1;" vertex="1" parent="1">
          <mxGeometry x="530" y="1160" width="120" height="60" as="geometry" />
        </mxCell>
        <mxCell id="INymWTwLo0coM6jpBJcd-14" value="end" style="ellipse;whiteSpace=wrap;html=1;" vertex="1" parent="1">
          <mxGeometry x="340" y="1280" width="120" height="80" as="geometry" />
        </mxCell>
        <mxCell id="INymWTwLo0coM6jpBJcd-23" style="edgeStyle=orthogonalEdgeStyle;rounded=0;orthogonalLoop=1;jettySize=auto;html=1;" edge="1" parent="1" source="INymWTwLo0coM6jpBJcd-15" target="INymWTwLo0coM6jpBJcd-9">
          <mxGeometry relative="1" as="geometry" />
        </mxCell>
        <mxCell id="INymWTwLo0coM6jpBJcd-15" value="done" style="ellipse;whiteSpace=wrap;html=1;" vertex="1" parent="1">
          <mxGeometry x="340" y="820" width="120" height="80" as="geometry" />
        </mxCell>
        <mxCell id="INymWTwLo0coM6jpBJcd-19" style="edgeStyle=orthogonalEdgeStyle;rounded=0;orthogonalLoop=1;jettySize=auto;html=1;entryX=0.525;entryY=0.1;entryDx=0;entryDy=0;entryPerimeter=0;" edge="1" parent="1" source="INymWTwLo0coM6jpBJcd-5" target="INymWTwLo0coM6jpBJcd-6">
          <mxGeometry relative="1" as="geometry" />
        </mxCell>
        <mxCell id="INymWTwLo0coM6jpBJcd-20" style="edgeStyle=orthogonalEdgeStyle;rounded=0;orthogonalLoop=1;jettySize=auto;html=1;entryX=0.538;entryY=0.1;entryDx=0;entryDy=0;entryPerimeter=0;" edge="1" parent="1" source="INymWTwLo0coM6jpBJcd-6" target="INymWTwLo0coM6jpBJcd-7">
          <mxGeometry relative="1" as="geometry" />
        </mxCell>
        <mxCell id="INymWTwLo0coM6jpBJcd-24" style="edgeStyle=orthogonalEdgeStyle;rounded=0;orthogonalLoop=1;jettySize=auto;html=1;entryX=0.45;entryY=0.113;entryDx=0;entryDy=0;entryPerimeter=0;" edge="1" parent="1" source="INymWTwLo0coM6jpBJcd-9" target="INymWTwLo0coM6jpBJcd-10">
          <mxGeometry relative="1" as="geometry" />
        </mxCell>
      </root>
    </mxGraphModel>
  </diagram>
</mxfile>
